<?xml version="1.0" encoding="UTF-8" standalone="no"?>
<!-- Created with Inkscape (http://www.inkscape.org/) -->

<svg
   width="210mm"
   height="297mm"
   viewBox="0 0 210 297"
   version="1.1"
   id="svg1"
   xml:space="preserve"
   sodipodi:docname="dibujo.svg"
   inkscape:version="1.4 (1:1.4+202410161351+e7c3feb100)"
   xmlns:inkscape="http://www.inkscape.org/namespaces/inkscape"
   xmlns:sodipodi="http://sodipodi.sourceforge.net/DTD/sodipodi-0.dtd"
   xmlns="http://www.w3.org/2000/svg"
   xmlns:svg="http://www.w3.org/2000/svg"><sodipodi:namedview
     id="namedview1"
     pagecolor="#505050"
     bordercolor="#eeeeee"
     borderopacity="1"
     inkscape:showpageshadow="0"
     inkscape:pageopacity="0"
     inkscape:pagecheckerboard="0"
     inkscape:deskcolor="#505050"
     inkscape:document-units="mm"
     showguides="true"
     inkscape:zoom="0.24498457"
     inkscape:cx="1083.7417"
     inkscape:cy="522.48189"
     inkscape:window-width="1299"
     inkscape:window-height="807"
     inkscape:window-x="0"
     inkscape:window-y="0"
     inkscape:window-maximized="1"
     inkscape:current-layer="layer2" /><defs
     id="defs1" /><g
     inkscape:groupmode="layer"
     id="layer2"
     inkscape:label="Capa 0"><circle
       id="path280"
       style="fill:#000000;stroke:#000000;stroke-width:0.264583"
       cx="-333.72614"
       cy="20.619234"
       r="0.76891881" /><path
       style="fill:none;fill-opacity:1;stroke:#000000;stroke-width:4;stroke-dasharray:none;stroke-opacity:1"
       id="path370"
       d="m -101.70422,-556.09548 c -0.22069,-0.40698 -0.44139,-0.81396 -0.66208,-1.22091 0,0 -1.78514,-0.8013 -1.78514,-0.8013 v 0 c 0.21419,0.40191 0.42838,0.80384 0.64258,1.20574 z" /><circle
       id="path444"
       style="fill:#000000;stroke:#000000;stroke-width:0.264583"
       cx="565.91998"
       cy="-483.84"
       r="1.0874155" /><g
       id="g1"
       transform="matrix(0.89269493,0,0,0.89269493,-209.00003,275.56781)"
       inkscape:export-filename="g1.svg"
       inkscape:export-xdpi="94.23362"
       inkscape:export-ydpi="94.23362"
       style="stroke-width:4.48081407;stroke-dasharray:none;stroke:#7e22ce;stroke-opacity:1"><path
         style="fill:none;fill-opacity:1;stroke:#7e22ce;stroke-width:4.48081407;stroke-dasharray:none;stroke-opacity:1"
         id="path416"
         d="m 344.08493,-131.53424 c 2.45409,-10.05095 5.46198,-19.95823 8.20314,-29.93364 2.58104,-8.49968 4.44082,-17.27135 7.54302,-25.60809 0.17302,-0.0319 0.63711,0.0348 0.51907,-0.0956 -0.18384,-0.20315 -0.77153,-0.48217 -0.79489,-0.20917 -0.0771,0.90143 0.40509,1.7637 0.58607,2.65014 0.82845,4.05772 1.61389,8.1265 2.37332,12.19766 1.46283,8.06446 3.09028,16.10028 5.14331,24.03581 1.42725,6.70018 3.82837,13.05354 6.83063,19.18923 0.76648,1.32328 3.95941,8.59389 6.08678,8.11747 0.61971,-0.13879 0.43165,-1.20381 0.52286,-1.83205 0.13826,-0.96497 0.10536,-1.94678 0.15805,-2.92017 -0.31792,-9.55518 -2.23581,-18.97395 -3.90887,-28.36231 -1.68078,-9.85376 -3.29114,-19.72396 -4.65144,-29.62757 -1.1304,-8.0381 -2.16275,-16.10202 -2.55967,-24.21347 -0.40876,-4.95678 0.20893,-9.85752 1.31761,-14.67849 0.68042,-2.45541 0.96958,-5.20974 3.67712,-6.12236 3.2873,0.27671 5.87624,2.94323 8.29332,4.97079 2.34835,2.01039 3.7018,3.91634 5.16128,6.73529 1.45388,2.63241 0.57629,4.7872 -1.30572,6.86084 -2.42523,2.39839 -5.66348,2.89724 -8.87085,3.51206 -5.32882,0.69962 -10.69219,-0.17028 -15.92257,-1.18143 -6.38705,-1.37535 -12.48082,-3.77389 -18.73142,-5.62097 -3.30975,-1.03966 -6.76178,-1.55746 -10.16164,-0.73614 -2.29829,0.85047 -3.85073,2.62825 -5.10368,4.6553 -1.69082,4.56397 -1.48374,9.50805 -1.3068,14.29351 0.24001,6.80182 0.963,13.57004 1.59163,20.34345 0.86651,8.0808 1.13654,16.20506 1.62123,24.3133 0.17242,6.4876 0.28641,12.97475 0.0324,19.46059 -0.15006,6.84191 -1.05762,13.59125 -2.12301,20.33745 -0.75013,5.11135 -2.06947,10.1052 -3.1173,15.156642 -0.71529,3.29379 -1.36401,6.599062 -3.00486,9.566859 -2.18096,2.44492 -4.66818,5.336643 -8.02453,6.104733 -0.65792,0.150567 -1.34123,0.15248 -2.01185,0.228718 -0.7175,-0.127942 -1.45799,-0.162867 -2.15252,-0.383827 -3.42457,-1.089504 -7.38147,-4.461311 -9.3477,-7.409368 -3.54282,-4.961385 -5.10843,-10.662495 -6.07745,-16.581667 -0.73689,-5.0539 -0.24126,-10.11623 0.81143,-15.07802 0.56788,-1.86576 1.24885,-3.88858 3.23834,-4.56707 2.69471,0.15038 5.33521,1.42398 7.85949,2.32976 6.53898,2.36811 13.08143,4.72662 19.62556,7.08053 7.80971,2.80676 15.61979,5.61249 23.43037,8.4168 6.22794,2.46094 12.62611,4.35546 19.2161,5.53471 5.45974,0.872282 10.97166,0.682202 16.41489,-0.15596 4.39221,-0.78767 8.78703,-1.77289 12.73803,-3.89785 2.94186,-1.74152 5.50335,-4.1167 7.68872,-6.73299 1.61906,-2.22592 3.33247,-4.35612 4.64482,-6.78187 0.85004,-2.31816 1.023,-4.87831 1.08456,-7.3363 -0.0666,-2.25486 -0.52505,-4.42473 -1.35239,-6.517 -0.94097,-1.73137 -2.01417,-3.37495 -3.07664,-5.03223 -0.67134,-1.58159 -1.51055,-3.02093 -2.48577,-4.42346 -0.12397,-0.21209 -0.24794,-0.42418 -0.37187,-0.63627 0,0 -1.47916,-1.32168 -1.47916,-1.32168 v 0 c 0.12011,0.21547 0.24021,0.43093 0.36032,0.64639 0.93938,1.42307 1.90584,2.79556 2.49721,4.42637 1.0545,1.6582 2.12571,3.29611 3.09875,5.00372 0.86332,2.0653 1.31423,4.22156 1.4097,6.46071 -0.0367,2.43283 -0.2196,4.96739 -1.01518,7.27336 -1.29947,2.41921 -3.00088,4.54387 -4.60841,6.76333 -2.16559,2.60053 -4.71,4.95709 -7.63025,6.68587 -3.93223,2.10859 -8.30205,3.09581 -12.67196,3.87435 -5.42762,0.8234 -10.92222,0.99848 -16.36265,0.11939 -6.57774,-1.18194 -12.95893,-3.08669 -19.1782,-5.53652 -7.80969,-2.79826 -15.61939,-5.59652 -23.42436,-8.40796 -6.55358,-2.36314 -13.10525,-4.73144 -19.65062,-7.11724 -2.54076,-0.91531 -5.25835,-2.28848 -7.99023,-2.27916 -2.03661,0.7561 -2.78645,2.76328 -3.37067,4.72109 -1.05676,4.98359 -1.56452,10.06947 -0.84348,15.1475 0.94954,5.936742 2.4922,11.654722 6.00895,16.651096 3.73656,4.619025 7.82294,9.863857 14.1364,10.624249 0.68302,-0.08466 1.3796,-0.09431 2.04909,-0.253973 3.393,-0.809193 5.90363,-3.725714 8.1362,-6.189539 1.67363,-2.976514 2.32306,-6.299021 3.04127,-9.615361 1.04285,-5.06139 2.35085,-10.066512 3.10112,-15.186472 1.06131,-6.74927 1.9947,-13.49852 2.14875,-20.34349 0.25836,-6.4963 0.13598,-12.99297 -0.036,-19.49115 -0.49292,-8.10707 -0.75354,-16.23039 -1.61059,-24.31151 -0.62555,-6.76833 -1.35136,-13.53084 -1.59023,-20.3273 -0.18125,-4.7485 -0.38341,-9.64659 1.24904,-14.18738 1.22096,-1.98423 2.73281,-3.73402 4.98716,-4.55363 3.36991,-0.78909 6.78234,-0.25449 10.05827,0.76712 6.25492,1.84614 12.35494,4.23932 18.74678,5.6101 5.25504,1.0052 10.64009,1.86907 15.99073,1.14999 3.25565,-0.61657 6.5217,-1.14553 8.9798,-3.57807 1.91313,-2.09292 2.9352,-4.32966 1.47347,-7.02991 -1.86907,-3.70967 -4.58707,-6.93101 -7.66539,-9.70653 -2.45426,-2.04631 -5.10231,-4.76907 -8.47172,-4.87089 -2.78176,1.01465 -3.12233,3.68012 -3.81362,6.26721 -1.11132,4.83988 -1.74891,9.76104 -1.3342,14.73757 0.39725,8.12428 1.44281,16.19973 2.57378,24.25047 1.35346,9.90815 2.97616,19.78012 4.65165,29.63829 1.66821,9.36632 3.58646,18.76243 3.90277,28.29513 -0.0491,0.95862 -0.0378,1.92227 -0.1474,2.87588 -0.0654,0.56894 -0.40353,1.10465 -0.37582,1.6765 0.0281,0.57022 1.08273,1.79778 0.53832,1.62593 -0.68974,-0.21768 -0.7934,-1.20977 -1.17204,-1.82596 -1.48545,-2.41722 -1.43079,-2.42542 -2.81592,-5.05602 -3.01847,-6.1236 -5.43255,-12.46895 -6.86209,-19.1652 -2.06084,-7.93621 -3.70901,-15.97097 -5.16643,-24.03933 -1.86307,-10.08784 0.19801,0.90835 -1.65583,-8.5176 -0.63276,-3.21724 -0.58137,-6.55318 -3.10062,-9.00177 -0.16348,-0.15891 -0.42741,0.15873 -0.6411,0.2381 -3.01237,8.39201 -4.92335,17.16074 -7.48575,25.69129 -2.73705,9.95834 -5.73768,19.84603 -8.28155,29.85576 z" /><circle
         style="fill:none;stroke:#7e22ce;stroke-width:4.48081407;stroke-dasharray:none;stroke-opacity:1"
         id="path1"
         cx="352.07999"
         cy="-154.43999"
         r="103.68" /></g></g><g
     inkscape:label="Capa 1"
     inkscape:groupmode="layer"
     id="layer1"><path
       style="fill:none;stroke:#000000;stroke-width:2.56484;stroke-dasharray:none;stroke-opacity:1"
       d=""
       id="path52"
       transform="scale(0.26458333)" /><path
       style="fill:none;stroke:#000000;stroke-width:2.56484;stroke-dasharray:none;stroke-opacity:1"
       d=""
       id="path56"
       transform="scale(0.26458333)" /><path
       style="fill:none;stroke:#000000;stroke-width:2.56484;stroke-dasharray:none;stroke-opacity:1"
       d=""
       id="path66"
       transform="scale(0.26458333)" /><path
       style="fill:none;stroke:#000000;stroke-width:2.56484;stroke-dasharray:none;stroke-opacity:1"
       d=""
       id="path68"
       transform="scale(0.26458333)" /><path
       style="fill:none;stroke:#000000;stroke-width:2.56484;stroke-dasharray:none;stroke-opacity:1"
       d=""
       id="path69"
       transform="scale(0.26458333)" /><path
       style="fill:none;stroke:#000000;stroke-width:2.56484;stroke-dasharray:none;stroke-opacity:1"
       d=""
       id="path70"
       transform="scale(0.26458333)" /><path
       style="fill:none;stroke:#000000;stroke-width:2.56484;stroke-dasharray:none;stroke-opacity:1"
       d=""
       id="path73"
       transform="scale(0.26458333)" /><path
       style="fill:none;stroke:#000000;stroke-width:1.28242;stroke-dasharray:none;stroke-opacity:1"
       d=""
       id="path80"
       transform="scale(0.26458333)" /><path
       style="fill:none;stroke:#000000;stroke-width:1.28242;stroke-dasharray:none;stroke-opacity:1"
       d=""
       id="path86"
       transform="scale(0.26458333)" /><path
       style="fill:none;stroke:#000000;stroke-width:1.28242;stroke-dasharray:none;stroke-opacity:1"
       d=""
       id="path87"
       transform="scale(0.26458333)" /><path
       style="fill:none;stroke:#000000;stroke-width:1.28242;stroke-dasharray:none;stroke-opacity:1"
       d=""
       id="path88"
       transform="scale(0.26458333)" /><path
       style="fill:none;stroke:#000000;stroke-width:1.28242;stroke-dasharray:none;stroke-opacity:1"
       d=""
       id="path94"
       transform="scale(0.26458333)" /><path
       style="fill:none;stroke:#000000;stroke-width:1.28242;stroke-dasharray:none;stroke-opacity:1"
       d=""
       id="path95"
       transform="scale(0.26458333)" /><path
       style="fill:none;stroke:#000000;stroke-width:1.28242;stroke-dasharray:none;stroke-opacity:1"
       d=""
       id="path96"
       transform="scale(0.26458333)" /><path
       style="fill:none;stroke:#000000;stroke-width:2.56484;stroke-dasharray:none;stroke-opacity:1"
       d=""
       id="path115"
       transform="scale(0.26458333)" /><path
       style="fill:none;stroke:#000000;stroke-width:2.56484;stroke-dasharray:none;stroke-opacity:1"
       d=""
       id="path121"
       transform="scale(0.26458333)" /><path
       style="fill:none;stroke:#000000;stroke-width:2.56484;stroke-dasharray:none;stroke-opacity:1"
       d=""
       id="path123"
       transform="scale(0.26458333)" /><path
       style="fill:none;stroke:#000000;stroke-width:2.56484;stroke-dasharray:none;stroke-opacity:1"
       d=""
       id="path125"
       transform="scale(0.26458333)" /><path
       style="fill:none;stroke:#000000;stroke-width:2.56484;stroke-dasharray:none;stroke-opacity:1"
       d=""
       id="path126"
       transform="scale(0.26458333)" /><path
       style="fill:none;stroke:#000000;stroke-width:2.56484;stroke-dasharray:none;stroke-opacity:1"
       d=""
       id="path127"
       transform="scale(0.26458333)" /><path
       style="fill:none;stroke:#000000;stroke-width:2.56484;stroke-dasharray:none;stroke-opacity:1"
       d=""
       id="path131"
       transform="scale(0.26458333)" /><path
       style="fill:none;stroke:#000000;stroke-width:2.56484;stroke-dasharray:none;stroke-opacity:1"
       d=""
       id="path132"
       transform="scale(0.26458333)" /><path
       style="fill:none;stroke:#000000;stroke-width:2.56484;stroke-dasharray:none;stroke-opacity:1"
       d=""
       id="path133"
       transform="scale(0.26458333)" /></g></svg>
